<svg xmlns="http://www.w3.org/2000/svg" data-name="aProH_logo" viewBox="0 0 612.4 611.6">
    <circle cx="305.7" cy="308.7" r="289" fill="#f5da09" stroke="#d41116" stroke-miterlimit="10" stroke-width="2"/>
    <path d="M310.1 4C132.6 4 3.5 137.8 3.5 316.3S144 608.1 310.1 608c157.3-5.3 291.7-121.8 298.8-291.7C608.9 150.2 456.1 4 310.1 4Zm.5 29.3c2.8.7 2.8.8.5.9-1.4.1-3.6.8-4.9 1.5-2.5 1.4-3.8 1.3-7.9-.7-2.2-1-2.2-1.2-.5-1.8 2.3-1 8.9-.9 12.8.1Zm-34.3 13.5c5.5 1.4 13 5.5 22.2 12 2.6 1.9 5.2 3.5 5.6 3.5s4-2.5 7.9-5.6c9.5-7.4 16-10.3 25.2-11 12.8-1.1 24.1 3 33.9 12.2 4.6 4.4 6.2 6.9 10.1 16.3l1.3 3.2c.5 1.2 1.8 2 3.1 1.8l4.3-.5c15.6-2 25.7-.4 35 5.6 8.7 5.6 12.5 12.4 14.4 25.6.7 4.3-1.1 13-3.5 17.7-1.8 3.6-1.8 4.2-.5 7 6.3 13.5 4.7 28.4-4 37.2-7 7-14 9.9-23.3 9.9-19.2 0-32.9-15.5-33-37.2v-3.2c0-1.7-1.4-3.1-3.1-3l-4.6.2c-6.4.2-7.7.6-7.4 1.8s.6 5.1.9 9.6c.7 12.9-3 23-11.4 30.3-6.3 5.5-11.7 7.4-22.6 7.9-8.7.4-10.2.2-15.1-2.1-6.2-2.8-13.6-9.2-16.8-14.4-1.2-1.9-3.4-7.3-4.9-11.9-2.7-8.5-4-11.1-4-8.1s-7.7 8.5-13.7 10.7c-6.4 2.4-12.1 2.5-18.9.5-5.8-1.7-10.3-6-13.3-12.7-2-4.6-4.5-6.8-7.3-6.8s-1.4 1.9-1.4 7.2c-.1 8.7-2.1 14.5-7 20.5-6.8 8.3-18.1 12.2-29.6 10.4-17.3-2.9-27.1-13.7-27.2-30.1-.1-6.3.4-8.4 2.7-13.2l2.1-4.3c.4-.9.4-1.9 0-2.7l-1.3-2.6c-3.1-6-4.5-16-3.1-21.3 3.1-11.3 11.4-22 20.8-26.6 7.7-3.8 19.8-4.4 30-1.5 1.8.5 3.6.9 4.9 1.2s3-.6 3.4-2.1.8-2.8 1.3-4.4c2.2-7.9 5.4-13.2 11-18.4 9.5-8.8 23.5-12.1 36.7-8.6h.2Zm-61.9 5.4c-.8.8-1.6 1.6-2.1 2.3s-1.1 1-1.9 1.2c-1.7.4-4.5.7-7.7.8-7.5.4-8.5.3-6.5-.8 1.3-.7 4.9-1.9 8.1-2.7 3.2-.9 6.8-2.2 8-3 3.1-2.1 4.7-.3 2 2.2h.1Zm190 1.1c11.4 3.8 18.8 7 12.7 5.6-1.4-.3-6.4-.6-11.1-.6h-6.9c-1 0-1.9-.5-2.5-1.3l-2.3-3.2c-1.7-2.5-2.9-4.5-2.6-4.5s6 1.8 12.7 4Zm64.8 37.4c14.3 11.4 39.7 36.4 48.9 48.1 19.4 24.6 36.7 55.2 45.8 81 6.9 19.4 6.7 18.8 11.2 40.5 8.1 39.4 7.7 71-1.6 108.8-5.2 21.4-11.5 38.7-21.4 58.8-17.1 34.8-37.1 60.6-67 86.1-5.7 4.9-25.4 18.8-34.9 24.7-11.2 6.9-31.9 17.4-43.6 21.9-29.9 11.8-69.8 19.7-98.4 19.7-45.3-.2-86-9.7-127.6-30-26-12.6-48.2-28.5-69.9-49.8-30.4-30-52.4-65-66-105-15.9-46.9-19-85.8-10.5-130.2 6.1-31.5 16.7-61.7 29.6-84 7.6-13.3 18.5-31 22.2-36 9.5-13.1 33.3-38.1 43.7-46 3.2-2.5 10-7.8 15-11.7 8.4-6.7 11.4-8.4 11.4-6.6s-1.8 4.2-4.1 8.5c-3.9 7.6-7.3 19.6-6.3 22.3.3.7-.3 2.2-1.4 3.2-31.7 29.6-50.3 53.7-67 86.8-12 23.8-17.6 41.1-22.2 67.9-2.1 12.2-4.1 44.3-3.4 53.6 2.4 30.2 8.5 56.1 19 80.7 16 37.4 34.6 63.6 65.6 92.1 11.4 10.4 15.7 13.7 35.4 26.5 23 15 59.1 28.2 93.7 34.2 39.2 6.7 80.3 2.9 124.7-11.7 38.1-12.5 63.2-28 92.5-57.3 26.4-26.3 40.9-47.5 55.7-81.5 7.8-17.8 8.5-19.7 12.3-35 6.2-24.4 7.8-36.3 7.9-57.5 0-22.8-.6-32-4-48.5-7.7-37.9-16.7-60-36.9-91-15.9-24.2-30.4-41-45-52-3.8-2.9-7.2-5.5-8.8-6.9s-.9-1.2-1-1.9-.2-1.4-.3-2.2c-.9-9.8-2.9-17.4-6.4-24.6-2.2-4.4-4-8.4-4-8.8 0-.9.5-.5 17.1 12.8Zm-333.3 90.8c6.3 6.9 5.1 15.2-2.9 19.4-2.8 1.4-3.3 1.4-6.2-.3-9.8-5.6-7.5-21.3 3.1-21.3s4.5.7 6 2.2Zm349.3.1c6.2 4.2 7.5 10.1 3.7 16.9-4.2 7.4-12.2 9.1-18.2 3.8s-7-12.7-2.4-18.5c3.9-5 11.3-6 16.9-2.2Zm-226.1 3c4.7.1 10.8-.2 13.5-.6l2.9-.5c1.3-.2 2.5.4 3.1 1.6l.9 1.7c8.4 15.5 35.7 25.5 58.4 21.2 13.4-2.6 25.5-9.3 29.8-16.6.9-1.5 3-2 4.4-.9l2.4 1.8c7.1 5.3 12.7 7.9 20.5 9.6 3.6.7 6.8 1.4 7.1 1.4.9 0 1 9.9 1 126.5v115.3c0 .5 0 .9-.3 1.3l-2.7 5.6c-4.8 9.6-14.6 16.9-25.5 19-2.8.5-34.8.9-74 .8h-68.4c-.4 0-.9-.2-1.2-.4l-4.9-2.2c-10-4.7-14.8-10.2-19.1-22.5-2.1-5.8-2.1-6.8-2-113.4.1-59.1.4-112.8.7-119.3.8-13 0-11.9 8.8-13.1 6.7-.9 14.7-5.6 21.6-12.6l5.2-5.2c.8-.8 2-1.1 3.1-.7l2.2.8c2.2.7 7.8 1.4 12.5 1.5Zm-115.4 40.5c11.1 6 19.1 16.8 22 30 3.3 15.1-.6 27.2-12.5 38.5-10.3 9.7-21.2 13.1-34.6 10.8-17.3-3-30.3-15.8-34.5-34-2.6-11.2.2-22.4 8.2-32.8 5.6-7.3 11-11.4 18.7-14.1 5.5-1.9 8.2-2.2 16.6-1.9 9.1.2 10.6.6 16.1 3.5Zm353.2 2.8c5.4 3.2 8.1 8.6 8.2 16.3 0 6.3-2.8 13.1-6.5 15.5-3.4 2.3-11.1 3.8-15.2 3-7.8-1.5-15.3-13.6-13.8-22.4 2.1-12.5 16.2-18.9 27.3-12.4Zm29.2 45.4c4.6 4.6 3.2 12.2-2.6 14.6-1.9.8-4 1.4-4.9 1.4-2.4 0-6.4-4.8-7.1-8.7-.5-2.9-.2-3.9 2.2-6.4 3.4-3.6 9.3-4 12.4-.9Zm-29 25.7c10.7 3.2 22.8 19 24.9 32.3 4.6 29.6-20.3 52-49.4 44.5-12.4-3.3-19.8-9.3-25.6-20.7-5.6-10.9-4.9-27.3 1.5-38.3 3.4-5.7 12-14 17.2-16.5 8.6-4.2 20.2-4.7 31.4-1.3Zm-353.2 29.7c6.1 3.1 9.5 6.8 12.6 13.6 8.5 18.3-5 38.6-25.4 38.4-10.4-.2-19.2-6-24-16-4.3-8.8-2.1-22.7 4.7-30.3 7-7.9 22.4-10.6 32.1-5.7Zm334.7 77.1c11.1 6.4 12.6 21.9 3.1 31-6.9 6.7-14.9 7.8-23.6 3.5-4.8-2.5-7.6-5.7-9.5-10.9-2-5.9-1.9-10.4.5-15.1 5.6-10.9 18.9-14.8 29.5-8.5Zm-325.7.8c7 4.7 10 18.2 5.7 25.7-2.4 4.1-9.3 8-14.2 8-15.2 0-23.8-19.2-14-31.3 4.7-5.8 15.6-7 22.5-2.4Zm76.5 86.4c9.4.6 9.8.7 10.4 3.2.7 2.9.9 7.2.5 9.8s-1.3 2.4-2.6 2.5c-3.9.5-13.2 1-24.2 1.3-27.8.8-28.8.6-31.4-5.6-1.5-3.6 0-8.2 3.4-10.5 2.3-1.6 25.3-2.1 43.9-.8Zm102.2 0 15.1.5c1 0 1.9.6 2.5 1.4l1.1 1.7c1 1.7 1.9 4.6 1.9 6.3 0 4.2-15 6.3-45 6.3h-41.7c-.6 0-2.1-1.6-3.3-3.5-2.6-4.1-2.2-6.9 1.4-10.8l1.6-1.7c.6-.6 1.4-1 2.2-1h23.1c13.4 0 31.9.3 41.2.7Zm93.7 3.1c4.7 4.4 4.7 7 0 11.6l-1.8 1.8c-.6.6-1.4.9-2.2.9l-21.2-.6-21.3-.7c-.8 0-1.6-.4-2.1-1l-1.8-2c-3.6-3.8-3.6-7.3 0-11l2-2c.6-.6 1.3-.9 2.1-.9h40.9c.8 0 1.5.3 2 .8l3.2 3Z" class="cls-2"/>
    <path d="M336.1 82c-7.7 6.9-2 21.1 7.6 18.7 3.9-1 7.4-5.9 7.4-10.5s-1.3-7.5-5-9.4c-4.2-2.2-6.6-1.9-10 1.2Zm-68 3.8c-1.9.9-5 3-6.8 4.8-9.9 9.5-9.5 21.7 1.1 31.4 6.9 6.4 15.1 7.7 22.7 3.8 4.2-2.1 9.8-9 11.1-13.5 2.7-8.8-2.5-21.2-10.5-25.3-5.1-2.7-13.1-3.2-17.6-1.2Zm5.8 12.1c2.7 1.9 2.8 4.8.2 7.4s-5.4 2.5-6.8-.5c-1.6-3.5-1.5-4.2.8-6.5s2.9-2.4 5.8-.4Zm-69.4 10.5c-3 1.1-5.2 4.1-5.8 7.9-.7 4.1.8 7.5 4.5 10.3 2.4 1.7 3.1 1.8 6.4.7 7.1-2.3 9.9-11.8 5-16.4-2.7-2.6-7.2-3.6-10.1-2.5Zm-75.3 80.9c-2.5 3.2-2.9 4.1-1.7 4.6 3.2 1.2 8.2-3.8 7-7s-1.7-2-5.3 2.4Zm347-1.6c-3.7 3.7-4.2 4.6-3.2 6.4 1.2 2.2 3.2 3.2 6.6 3.2 5.4 0 7.3-6.8 3.3-11.4l-2.3-2.5-4.4 4.3Zm-219.6 44.5c-12.2 3.1-20.7 12.7-22.2 24.9-.8 6.9 2.7 14 10.5 21.5 6.8 6.4 11.8 8.2 20.1 7.4 11.6-1.2 18.9-7.7 21.7-19 3.5-13.9-1.5-25.4-13.7-31.4-7.1-3.6-11.8-4.6-16.4-3.4Zm2.6 14.1c2.4 1.3 2.5 6.1.2 8.3-4.3 3.8-11.3 2.8-11.3-1.7s6.1-9.2 11.1-6.6Zm70.3 1.9c-3.7 2.3-5.9 7.7-4.9 12.1.9 4 6.7 9 10.6 9s8.4-4.3 9.5-8.4c2.4-9.5-7.3-17.6-15.2-12.7Zm30.6 54.4c-6 3-6 11.4 0 15.4 1.8 1.3 4.3 2.3 5.5 2.3 5.3 0 9.8-7.3 8-13-.8-2.5-6.1-6-9-6s-3.1.6-4.5 1.3Zm-49.9 9.8c-2.8 2.7-4.1 6-4.1 10.9s.7 4.6 3.4 7.4c2.9 3.1 3.9 3.6 8.1 3.6s5.2-.5 8.1-3.4 3.4-4.1 3.4-8.3-.7-5.8-1.6-7.1c-3.6-5.3-13.1-7-17.3-3.1Zm-51 21c-7.4 2.2-14.8 8.6-17.7 15.4-3.9 9.1-1.8 19.1 5.9 28.9 9.1 11.5 29.1 11.4 38.7-.2 6.2-7.5 7.8-20.8 3.6-29.7-3.2-6.8-7.1-10.2-15-13.1-7.1-2.6-10.1-2.8-15.5-1.3Zm2.9 13.8c1.5 2.9 1.2 5.6-.7 7.4-4.4 3.9-11.2 2.2-9.8-2.4 1-2.9 5.3-6.9 7.6-6.9s2.3.9 2.9 1.9Zm81 16.7c-9.1 3.9-13.3 9.7-13.2 18 0 13.5 12.5 24 25 21.4 6.9-1.5 11.2-4.6 14-10 8.5-16.9-8.8-36.8-25.8-29.4Zm4.4 10c3.8 1.4 1 8.4-3.4 8.4s-4.4-1.2-3.6-4.6c.5-2 1.7-3 5.3-4.3 0 0 .8.2 1.7.5Zm-41.6 50c-4.4 1.9-6.3 6-5.9 12.7 0 1.1 1.6 3.4 3.5 5.3s4.2 3.4 7.1 3.4c5.2 0 10.5-5.3 10.5-10.4s-2.3-9.1-7-11c-2.2-.9-4.1-1.6-4.3-1.5-.1 0-1.8.7-3.9 1.5Zm-57.1 1.4c-3.6 2.9-5.2 8.3-3.7 12.1 1.7 4 4.7 5.9 9.1 5.9s4.3-.7 6.3-3.1c7.5-8.9-2.8-21.9-11.7-14.9ZM116.6 235.7c-9.2 2.9-14 7-17.6 15-2.8 6.4-2.7 12.9.2 21.1 4.3 12.3 12 18.4 24.1 19.3 5.9.4 7.4.1 13-2.5 7.7-3.7 11.3-7.2 14.7-14.3 2-4.3 2.6-7 2.6-12.5-.1-8.3-1.6-11.7-8.4-18.5s-18.8-10.7-28.6-7.6Zm.4 14.2c3.9 4.9 1.6 10.4-4.3 10.4s-7-5.7-2.3-10.8c2.7-2.9 4.1-2.8 6.6.4Zm363.6-13.1c-3.1 3-3.2 6.2-.2 10.6 1.5 2.3 3.5 3.7 6 4.3 3.5.9 4 .7 7.2-2.4 3.9-3.8 4.2-5.7 2-10.1-2.8-5.3-10.9-6.6-15-2.4Zm-6 74.6c-6.6 1.6-13.6 7.6-16.2 13.9-4.8 11.9-2 23.6 7.7 32.3 7.3 6.6 15.4 8.3 25.6 5.2 13-3.8 21.6-20.8 16.9-33.3-2.2-5.6-9.5-13.6-14.9-16.4-4.6-2.3-13.3-3.1-19.1-1.7Zm1.9 13.1c2.3 3.3 2 6.2-1 9.2-3.4 3.3-5.7 3.3-8.3 0-2.8-3.6-2.6-5 .8-8.5 3.5-3.5 6.4-3.7 8.5-.7ZM126.6 338c-5.4 1.4-10.5 8.2-10.5 14 .1 4.2 3.3 10.5 6.9 13.6 4.1 3.5 12.1 3.8 18.1.7 4.3-2.2 8-8 8-12.5 0-10.2-11.8-18.5-22.5-15.8Zm339 74.1c-.5.4-3 2.8-5.4 5.4l-4.4 4.6 2.1 3.4c3.3 5.3 10.3 7.4 15.4 4.7 2.3-1.2 4.8-6.7 4.8-10.5s-8.8-10.5-12.5-7.6ZM139 415.2c-3.9 3.9-4 9.1-.3 12s7 2.6 10.5-.8c3.7-3.8 3.9-8.2.4-11.6-3.3-3.3-7-3.2-10.6.4Z" class="cls-2"/>
</svg>
